<svg width="1200" height="780" viewBox="0 0 1200 780" fill="none" xmlns="http://www.w3.org/2000/svg">
  <rect width="1200" height="780" rx="48" fill="url(#paint0_linear_age)" />
  <rect width="1200" height="780" rx="48" fill="url(#paint1_radial_age)" />
  <rect x="180" y="170" width="840" height="440" rx="36" fill="white" fill-opacity="0.85" />
  <rect x="220" y="210" width="760" height="84" rx="24" fill="#EEF2FF" />
  <text x="252" y="264" fill="#111827" font-size="26" font-family="'Manrope', sans-serif">Idade</text>
  <text x="390" y="264" fill="#6366F1" font-size="22" font-family="'Manrope', sans-serif">Evento futuro</text>
  <rect x="252" y="314" width="188" height="78" rx="16" stroke="#CBD5F5" stroke-width="3" fill="white" />
  <rect x="470" y="314" width="188" height="78" rx="16" stroke="#CBD5F5" stroke-width="3" fill="white" />
  <rect x="688" y="314" width="188" height="78" rx="16" stroke="#CBD5F5" stroke-width="3" fill="white" />
  <text x="272" y="346" fill="#94A3B8" font-size="14" font-family="'Manrope', sans-serif" letter-spacing="0.4em">DIA</text>
  <text x="489" y="346" fill="#94A3B8" font-size="14" font-family="'Manrope', sans-serif" letter-spacing="0.4em">MÊS</text>
  <text x="705" y="346" fill="#94A3B8" font-size="14" font-family="'Manrope', sans-serif" letter-spacing="0.3em">ANO</text>

  <rect x="254" y="426" width="256" height="110" rx="32" fill="url(#paint2_linear_age)" />
  <text x="286" y="484" fill="#0F172A" font-size="42" font-family="'Space Grotesk', sans-serif" font-weight="700">-- anos</text>

  <rect x="474" y="426" width="256" height="110" rx="32" fill="url(#paint3_linear_age)" />
  <text x="506" y="484" fill="#0F172A" font-size="42" font-family="'Space Grotesk', sans-serif" font-weight="700">-- meses</text>

  <rect x="694" y="426" width="256" height="110" rx="32" fill="url(#paint4_linear_age)" />
  <text x="728" y="484" fill="#0F172A" font-size="42" font-family="'Space Grotesk', sans-serif" font-weight="700">-- dias</text>

  <g filter="url(#filter0_d_age)">
    <circle cx="880" cy="352" r="40" fill="#A855F7" />
    <path d="M880 336V368M880 368L894 354M880 368L866 354" stroke="white" stroke-width="4" stroke-linecap="round" stroke-linejoin="round" />
  </g>
  <rect x="824" y="318" width="116" height="68" rx="16" stroke="#E2E8F0" stroke-width="2" />
  <text x="844" y="360" fill="#111827" font-size="18" font-family="'Manrope', sans-serif">Calcular</text>

  <rect x="220" y="562" width="200" height="64" rx="20" fill="#E2E8F0" />
  <text x="260" y="602" fill="#111827" font-size="20" font-family="'Manrope', sans-serif">Limpar</text>

  <defs>
    <filter id="filter0_d_age" x="820" y="304" width="120" height="120" filterUnits="userSpaceOnUse" color-interpolation-filters="sRGB">
      <feOffset dy="8" />
      <feGaussianBlur stdDeviation="12" />
      <feBlend mode="normal" in2="SourceGraphic" result="shape" />
    </filter>
    <linearGradient id="paint0_linear_age" x1="120" y1="80" x2="1096" y2="720" gradientUnits="userSpaceOnUse">
      <stop stop-color="#F1F5F9" />
      <stop offset="1" stop-color="#E0E7FF" />
    </linearGradient>
    <radialGradient id="paint1_radial_age" cx="0" cy="0" r="1" gradientUnits="userSpaceOnUse" gradientTransform="translate(220 180) rotate(25) scale(480 360)">
      <stop stop-color="#EEF2FF" />
      <stop offset="1" stop-color="#E2E8F0" stop-opacity="0" />
    </radialGradient>
    <linearGradient id="paint2_linear_age" x1="254" y1="426" x2="510" y2="536" gradientUnits="userSpaceOnUse">
      <stop stop-color="#E0E7FF" />
      <stop offset="1" stop-color="#C7D2FE" />
    </linearGradient>
    <linearGradient id="paint3_linear_age" x1="474" y1="426" x2="730" y2="536" gradientUnits="userSpaceOnUse">
      <stop stop-color="#DDD6FE" />
      <stop offset="1" stop-color="#C4B5FD" />
    </linearGradient>
    <linearGradient id="paint4_linear_age" x1="694" y1="426" x2="950" y2="536" gradientUnits="userSpaceOnUse">
      <stop stop-color="#FDE68A" />
      <stop offset="1" stop-color="#FCD34D" />
    </linearGradient>
  </defs>
</svg>
