<svg width="1200" height="780" viewBox="0 0 1200 780" fill="none" xmlns="http://www.w3.org/2000/svg">
  <rect width="1200" height="780" rx="48" fill="url(#paint0_radial_conf)" />
  <rect width="1200" height="780" rx="48" fill="url(#paint1_linear_conf)" fill-opacity="0.65" />
  <g filter="url(#filter0_f_conf)">
    <path
      d="M138 574C259 478 436 486 557 574C678 662 855 670 976 574"
      stroke="#F97316"
      stroke-opacity="0.5"
      stroke-width="90"
      stroke-linecap="round"
    />
  </g>
  <g filter="url(#filter1_f_conf)">
    <path
      d="M188 210C309 306 486 298 607 210C728 122 905 114 1026 210"
      stroke="#F472B6"
      stroke-opacity="0.5"
      stroke-width="90"
      stroke-linecap="round"
    />
  </g>
  <rect x="150" y="180" width="420" height="430" rx="36" fill="rgba(15, 23, 42, 0.45)" stroke="rgba(255,255,255,0.12)" />
  <text x="192" y="248" fill="#F8FAFC" font-size="36" font-family="'Space Grotesk', sans-serif" font-weight="600">Coding Conf</text>
  <text x="192" y="302" fill="#F97316" font-size="20" font-family="'Manrope', sans-serif" letter-spacing="0.28em">2025</text>
  <text x="192" y="354" fill="#F8FAFC" font-size="28" font-family="'Manrope', sans-serif" font-weight="600">Sua jornada começa aqui</text>
  <text x="192" y="404" fill="rgba(226, 232, 240, 0.78)" font-size="18" font-family="'Manrope', sans-serif">
    Gere ingressos personalizados, faça upload do seu avatar e receba um QR Code exclusivo.
  </text>
  <rect x="192" y="442" width="300" height="58" rx="16" fill="rgba(15, 23, 42, 0.65)" stroke="rgba(148,163,184,0.3)" />
  <text x="212" y="478" fill="#E2E8F0" font-size="18" font-family="'Manrope', sans-serif">Upload de foto com feedback visual</text>
  <rect x="192" y="512" width="300" height="58" rx="16" fill="rgba(15, 23, 42, 0.65)" stroke="rgba(148,163,184,0.3)" />
  <text x="212" y="548" fill="#E2E8F0" font-size="18" font-family="'Manrope', sans-serif">Validação com Zod + mensagens amigáveis</text>
  <rect x="192" y="582" width="300" height="58" rx="16" fill="rgba(15, 23, 42, 0.65)" stroke="rgba(148,163,184,0.3)" />
  <text x="212" y="618" fill="#E2E8F0" font-size="18" font-family="'Manrope', sans-serif">Geração de ticket com animação</text>

  <g filter="url(#filter2_d_conf)">
    <rect x="620" y="220" width="430" height="340" rx="44" fill="rgba(15, 23, 42, 0.5)" stroke="rgba(255,255,255,0.14)" />
    <rect x="674" y="278" width="322" height="200" rx="28" fill="rgba(15, 23, 42, 0.75)" stroke="rgba(255,255,255,0.1)" />
    <rect x="722" y="318" width="230" height="120" rx="24" fill="rgba(249, 115, 22, 0.2)" stroke="#F97316" stroke-opacity="0.45" />
    <text x="742" y="360" fill="#F8FAFC" font-size="28" font-family="'Space Grotesk', sans-serif" font-weight="600">Seu ticket está pronto!</text>
    <text x="742" y="400" fill="#F8FAFC" font-size="20" font-family="'Manrope', sans-serif">Luiz Gustavo Santos Cunha</text>
    <text x="742" y="436" fill="#F97316" font-size="18" font-family="'Manrope', sans-serif">#01609 • Salvador • Agosto 2025</text>
    <circle cx="722" cy="512" r="18" fill="#F97316" fill-opacity="0.8" />
    <circle cx="1052" cy="320" r="18" fill="#F97316" fill-opacity="0.8" />
  </g>

  <defs>
    <filter id="filter0_f_conf" x="48" y="368" width="1018" height="334" filterUnits="userSpaceOnUse" color-interpolation-filters="sRGB">
      <feGaussianBlur stdDeviation="40" />
    </filter>
    <filter id="filter1_f_conf" x="98" y="70" width="1018" height="334" filterUnits="userSpaceOnUse" color-interpolation-filters="sRGB">
      <feGaussianBlur stdDeviation="40" />
    </filter>
    <filter id="filter2_d_conf" x="588" y="188" width="494" height="404" filterUnits="userSpaceOnUse" color-interpolation-filters="sRGB">
      <feOffset dy="8" />
      <feGaussianBlur stdDeviation="16" />
      <feBlend mode="normal" in2="SourceGraphic" result="shape" />
    </filter>
    <radialGradient id="paint0_radial_conf" cx="0" cy="0" r="1" gradientUnits="userSpaceOnUse" gradientTransform="translate(156 120) rotate(22) scale(880 640)">
      <stop offset="0.08" stop-color="#1A1035" />
      <stop offset="1" stop-color="#0B021A" />
    </radialGradient>
    <linearGradient id="paint1_linear_conf" x1="80" y1="64" x2="1090" y2="716" gradientUnits="userSpaceOnUse">
      <stop stop-color="#130A2A" />
      <stop offset="1" stop-color="#1E0644" />
    </linearGradient>
  </defs>
</svg>
