<svg width="96" height="96" viewBox="0 0 96 96" fill="none" xmlns="http://www.w3.org/2000/svg">
  <rect width="96" height="96" rx="24" fill="url(#paint0_linear_db)" />
  <g filter="url(#filter0_d_db)">
    <ellipse cx="48" cy="26" rx="22" ry="8" fill="#38BDF8" fill-opacity="0.85" />
    <path
      d="M26 32V60C26 66.6274 35.8497 72 48 72C60.1503 72 70 66.6274 70 60V32"
      fill="rgba(15, 23, 42, 0.55)"
      stroke="#38BDF8"
      stroke-width="4"
    />
    <path
      d="M26 44C26 50.6274 35.8497 56 48 56C60.1503 56 70 50.6274 70 44"
      stroke="#22D3EE"
      stroke-width="3"
      stroke-linecap="round"
    />
    <path
      d="M26 36C26 42.6274 35.8497 48 48 48C60.1503 48 70 42.6274 70 36"
      stroke="#22D3EE"
      stroke-width="3"
      stroke-linecap="round"
    />
  </g>
  <defs>
    <filter id="filter0_d_db" x="18" y="16" width="60" height="64" filterUnits="userSpaceOnUse" color-interpolation-filters="sRGB">
      <feOffset dy="4" />
      <feGaussianBlur stdDeviation="4" />
      <feBlend mode="normal" in2="SourceGraphic" result="shape" />
    </filter>
    <linearGradient id="paint0_linear_db" x1="16" y1="16" x2="80" y2="80" gradientUnits="userSpaceOnUse">
      <stop stop-color="#0F172A" />
      <stop offset="1" stop-color="#1E3A8A" />
    </linearGradient>
  </defs>
</svg>
