<svg width="96" height="96" viewBox="0 0 96 96" fill="none" xmlns="http://www.w3.org/2000/svg">
  <rect width="96" height="96" rx="24" fill="url(#paint0_linear_tailwind)" />
  <path
    d="M28 44C32.5 32 40 28 48 28C60 28 60 42 72 42C76 42 80 40 84 36C79.5 48 72 52 64 52C52 52 52 38 40 38C36 38 32 40 28 44Z"
    fill="url(#paint1_linear_tailwind)"
  />
  <path
    d="M12 60C16.5 48 24 44 32 44C44 44 44 58 56 58C60 58 64 56 68 52C63.5 64 56 68 48 68C36 68 36 54 24 54C20 54 16 56 12 60Z"
    fill="url(#paint2_linear_tailwind)"
  />
  <defs>
    <linearGradient id="paint0_linear_tailwind" x1="18" y1="12" x2="84" y2="84" gradientUnits="userSpaceOnUse">
      <stop stop-color="#0EA5E9" />
      <stop offset="1" stop-color="#22D3EE" />
    </linearGradient>
    <linearGradient id="paint1_linear_tailwind" x1="28" y1="28" x2="84" y2="44" gradientUnits="userSpaceOnUse">
      <stop stop-color="#BAE6FD" stop-opacity="0.88" />
      <stop offset="1" stop-color="#F0FDFA" stop-opacity="0.9" />
    </linearGradient>
    <linearGradient id="paint2_linear_tailwind" x1="12" y1="44" x2="68" y2="68" gradientUnits="userSpaceOnUse">
      <stop stop-color="#CFFAFE" stop-opacity="0.9" />
      <stop offset="1" stop-color="#E0F2FE" stop-opacity="0.9" />
    </linearGradient>
  </defs>
</svg>
