<svg xmlns="http://www.w3.org/2000/svg" viewBox="0 0 24 24" role="img" aria-hidden="true">
  <path
    fill="#25D366"
    d="M12 0C5.373 0 0 5.373 0 12c0 2.13.552 4.117 1.555 5.852L0 24l6.315-1.656C8.192 23.396 10.07 24 12 24c6.627 0 12-5.373 12-12S18.627 0 12 0Z"
  />
  <path
    fill="#E5F9EB"
    d="M12 2.214c-5.395 0-9.786 4.391-9.786 9.786 0 1.971.582 3.809 1.585 5.342l-.996 3.51 3.6-.96c1.472.966 3.227 1.525 5.162 1.525 5.395 0 9.786-4.391 9.786-9.786S17.395 2.214 12 2.214Z"
  />
  <path
    fill="#25D366"
    d="M20.41 11.999c0 4.648-3.762 8.41-8.41 8.41-1.614 0-3.117-.455-4.393-1.246l-.294-.176-2.623.7.701-2.615-.189-.299A8.376 8.376 0 0 1 3.59 12c0-4.648 3.762-8.41 8.41-8.41s8.41 3.762 8.41 8.41Z"
  />
  <path
    fill="#fff"
    d="M15.936 13.864c-.216-.107-1.283-.633-1.481-.705-.198-.072-.342-.107-.486.107-.143.216-.555.705-.681.849-.125.143-.253.161-.467.053-.216-.107-.908-.334-1.731-1.056-.64-.567-1.078-1.283-1.205-1.502-.125-.215-.012-.334.095-.441.097-.095.216-.252.324-.377.107-.125.161-.216.216-.36.072-.161.036-.287-.018-.394-.054-.107-.485-1.173-.674-1.608-.179-.416-.362-.448-.486-.457-.125-.009-.27-.009-.414-.009-.143 0-.377.053-.575.27-.198.215-.754.736-.754 1.797 0 1.061.776 2.111.883 2.256.107.143 1.522 2.32 3.7 3.262.517.223.921.355 1.23.455.517.161.99.14 1.365.085.417-.063 1.272-.521 1.45-1.023.179-.502.179-.924.125-1.017-.054-.095-.198-.148-.414-.257Z"
  />
</svg>

